<svg width="59" height="8" viewBox="0 0 59 8" fill="none" xmlns="http://www.w3.org/2000/svg">
<path d="M0.324158 7.28002V0.164495H1.58624V6.21378H4.5456V7.28002H0.324158Z" fill="#97A5AC"/>
<path d="M7.52621 7.28002V0.164495H11.8129V1.23074H8.78829V3.0477H11.3451V4.11394H8.78829V6.21378H11.9217V7.28002H7.52621Z" fill="#97A5AC"/>
<path d="M16.5793 3.49378L16.3291 4.36418H18.146L17.8958 3.49378C17.7797 3.1166 17.6673 2.72855 17.5585 2.32962C17.457 1.93068 17.3554 1.53538 17.2539 1.1437H17.2103C17.1088 1.54263 17.0072 1.94156 16.9057 2.3405C16.8042 2.73218 16.6954 3.1166 16.5793 3.49378ZM14.1966 7.28002L16.514 0.164495H17.9937L20.3111 7.28002H18.9838L18.4289 5.35426H16.0353L15.4804 7.28002H14.1966Z" fill="#97A5AC"/>
<path d="M22.9291 7.28002V0.164495H25.3335C25.7035 0.164495 26.048 0.200762 26.3671 0.273295C26.6863 0.345829 26.9619 0.465509 27.194 0.632336C27.4261 0.791909 27.6075 1.00588 27.738 1.27426C27.8758 1.54263 27.9447 1.87628 27.9447 2.27522C27.9447 2.81922 27.8142 3.25804 27.5531 3.5917C27.2992 3.92535 26.9583 4.16471 26.5303 4.30978L28.2276 7.28002H26.8132L25.2791 4.49474H24.1911V7.28002H22.9291ZM24.1911 3.49378H25.203C25.689 3.49378 26.0589 3.39223 26.3127 3.18914C26.5739 2.98604 26.7044 2.6814 26.7044 2.27522C26.7044 1.86178 26.5739 1.57527 26.3127 1.4157C26.0589 1.25612 25.689 1.17634 25.203 1.17634H24.1911V3.49378Z" fill="#97A5AC"/>
<path d="M31.1086 7.28002V0.164495H32.4033L34.6228 4.16834L35.3518 5.68066H35.3953C35.3663 5.31074 35.3301 4.91543 35.2865 4.49474C35.2503 4.06679 35.2321 3.65335 35.2321 3.25442V0.164495H36.4398V7.28002H35.1451L32.9256 3.27618L32.1966 1.76386H32.1531C32.1821 2.14103 32.2147 2.53634 32.251 2.94978C32.2945 3.36322 32.3163 3.7694 32.3163 4.16834V7.28002H31.1086Z" fill="#97A5AC"/>
<path d="M39.9894 7.28002V0.164495H41.2515V7.28002H39.9894Z" fill="#97A5AC"/>
<path d="M44.8008 7.28002V0.164495H46.0956L48.3151 4.16834L49.044 5.68066H49.0876C49.0585 5.31074 49.0223 4.91543 48.9788 4.49474C48.9425 4.06679 48.9244 3.65335 48.9244 3.25442V0.164495H50.132V7.28002H48.8373L46.6178 3.27618L45.8888 1.76386H45.8453C45.8743 2.14103 45.907 2.53634 45.9432 2.94978C45.9868 3.36322 46.0085 3.7694 46.0085 4.16834V7.28002H44.8008Z" fill="#97A5AC"/>
<path d="M56.6628 7.41058C56.184 7.41058 55.738 7.33079 55.3245 7.17122C54.9183 7.01164 54.5629 6.77591 54.2583 6.46402C53.9609 6.15212 53.7288 5.7677 53.562 5.31074C53.3951 4.85378 53.3117 4.33154 53.3117 3.74402C53.3117 3.16375 53.3988 2.64514 53.5728 2.18818C53.7469 1.72396 53.9826 1.33228 54.28 1.01314C54.5847 0.693989 54.9401 0.451002 55.3463 0.284176C55.7597 0.117349 56.2022 0.0339355 56.6736 0.0339355C57.1814 0.0339355 57.6093 0.128229 57.9575 0.316815C58.3129 0.498149 58.603 0.704869 58.8279 0.936976L58.1533 1.75298C57.972 1.5789 57.7689 1.43383 57.544 1.31778C57.3264 1.19447 57.0508 1.13282 56.7172 1.13282C56.398 1.13282 56.1079 1.19447 55.8468 1.31778C55.5929 1.43383 55.3717 1.60428 55.1831 1.82914C55.0017 2.04674 54.8603 2.31511 54.7588 2.63426C54.6572 2.9534 54.6064 3.31244 54.6064 3.71138C54.6064 4.52375 54.7878 5.16204 55.1504 5.62626C55.5204 6.08322 56.0644 6.3117 56.7824 6.3117C56.9855 6.3117 57.1777 6.28631 57.3591 6.23554C57.5404 6.17751 57.6891 6.09772 57.8052 5.99618V4.4621H56.456V3.4285H58.9367V6.56194C58.6973 6.8013 58.3782 7.00439 57.9792 7.17122C57.5876 7.33079 57.1487 7.41058 56.6628 7.41058Z" fill="#97A5AC"/>
</svg>
